<svg xmlns="http://www.w3.org/2000/svg" xmlns:xlink="http://www.w3.org/1999/xlink" viewBox="0 0 451.1 433.13"><defs><style>.cls-1{opacity:0.94;fill:url(#蓝色渐变_2);}.cls-2{opacity:0.41;fill:url(#蓝色渐变_2-2);}.cls-3{opacity:0.31;fill:url(#蓝色渐变_2-3);}.cls-4{fill:url(#蓝色渐变_2-4);}</style><linearGradient id="蓝色渐变_2" x1="404.93" y1="-43.08" x2="44.03" y2="479.32" gradientUnits="userSpaceOnUse"><stop offset="0" stop-color="#8ce4db"/><stop offset="1" stop-color="#1eb8d9"/></linearGradient><linearGradient id="蓝色渐变_2-2" x1="298.7" y1="463.31" x2="148.84" y2="226.98" xlink:href="#蓝色渐变_2"/><linearGradient id="蓝色渐变_2-3" x1="91.05" y1="232.27" x2="441.03" y2="389.94" xlink:href="#蓝色渐变_2"/><linearGradient id="蓝色渐变_2-4" x1="285.36" y1="120.92" x2="159.64" y2="-77.33" xlink:href="#蓝色渐变_2"/></defs><title>background</title><g id="图层_2" data-name="图层 2"><g id="图层_1-2" data-name="图层 1"><rect class="cls-1" width="451.1" height="433.13"/><path class="cls-2" d="M0,292.86c73.5,0,125.79-64.66,259.12-64.66s192,34.56,192,34.56V433.13H0Z"/><path class="cls-3" d="M451.1,152.59s-28.43,178.22-62.77,178.22S327,157.2,202.49,157.2,108,368.62,0,368.62v64.52H451.1Z"/><path class="cls-4" d="M0,53.22c64.5,0,102,47.53,163.49,47.53S309.33,23,373.66,23,451.1,71.58,451.1,71.58V0H0Z"/></g></g></svg>