<svg xmlns="http://www.w3.org/2000/svg" xmlns:xlink="http://www.w3.org/1999/xlink" viewBox="0 0 451.1 451.1"><defs><style>.cls-1{opacity:0.89;fill:url(#Rare_Wind_2);}.cls-2{fill:url(#Rare_Wind_2-2);}.cls-3{opacity:0.31;fill:url(#Rare_Wind_2-3);}.cls-4{opacity:0.41;fill:url(#Rare_Wind_2-4);}</style><linearGradient id="Rare_Wind_2" x1="-2116.36" y1="1569.16" x2="-2485.97" y2="2104.16" gradientTransform="translate(2525.62 -1609.52)" gradientUnits="userSpaceOnUse"><stop offset="0" stop-color="#fed6e3"/><stop offset="1" stop-color="#a8edea"/></linearGradient><linearGradient id="Rare_Wind_2-2" x1="-2149.9" y1="1935.57" x2="-2384.9" y2="1564.98" gradientTransform="translate(-1609.52 -2074.52) rotate(-90)" xlink:href="#Rare_Wind_2"/><linearGradient id="Rare_Wind_2-3" x1="-2530.69" y1="1788.9" x2="-2081.25" y2="1991.37" gradientTransform="translate(-1609.52 -2074.52) rotate(-90)" xlink:href="#Rare_Wind_2"/><linearGradient id="Rare_Wind_2-4" x1="-2211.77" y1="2076.74" x2="-2371.64" y2="1824.63" gradientTransform="translate(-1609.52 -2074.52) rotate(-90)" xlink:href="#Rare_Wind_2"/></defs><title>left</title><g id="图层_2" data-name="图层 2"><g id="图层_1-2" data-name="图层 1"><rect class="cls-1" width="451.1" height="451.1" transform="translate(0 451.1) rotate(-90)"/><path class="cls-2" d="M178.46,451.1c0-64.5-119.77-86.65-119.77-206.65s351-139.72,351-189.36S331.56,0,331.56,0H0V451.1Z"/><path class="cls-3" d="M158.92,0S83.69,42.11,83.69,76.45s115.6,44.51,115.6,169S83.69,343.11,83.69,451.1H451.1V0Z"/><path class="cls-4" d="M305,451.1s-73.43-39.65-73.43-109.65,178.09-99,178.09-184S204.84,100.55,204.84,0H451.1V451.1Z"/></g></g></svg>