<svg xmlns="http://www.w3.org/2000/svg" xmlns:xlink="http://www.w3.org/1999/xlink" viewBox="0 0 451.1 451.1"><defs><style>.cls-1{opacity:0.89;fill:url(#Rare_Wind);}.cls-2{fill:url(#Rare_Wind-2);}.cls-3{opacity:0.31;fill:url(#Rare_Wind-3);}.cls-4{opacity:0.41;fill:url(#Rare_Wind-4);}</style><linearGradient id="Rare_Wind" x1="409.26" y1="-40.36" x2="39.65" y2="494.64" gradientUnits="userSpaceOnUse"><stop offset="0" stop-color="#a8edea"/><stop offset="1" stop-color="#fed6e3"/></linearGradient><linearGradient id="Rare_Wind-2" x1="375.73" y1="326.05" x2="140.72" y2="-44.54" xlink:href="#Rare_Wind"/><linearGradient id="Rare_Wind-3" x1="-5.06" y1="179.38" x2="444.37" y2="381.85" xlink:href="#Rare_Wind"/><linearGradient id="Rare_Wind-4" x1="313.86" y1="467.22" x2="153.98" y2="215.11" xlink:href="#Rare_Wind"/></defs><title>right</title><g id="图层_2" data-name="图层 2"><g id="图层_1-2" data-name="图层 1"><rect class="cls-1" width="451.1" height="451.1"/><path class="cls-2" d="M0,178.46c64.5,0,86.65-119.77,206.65-119.77s139.72,351,189.36,351,55.09-78.11,55.09-78.11V0H0Z"/><path class="cls-3" d="M451.1,158.92S409,83.69,374.65,83.69s-44.51,115.6-169,115.6S108,83.69,0,83.69V451.1H451.1Z"/><path class="cls-4" d="M0,305s39.65-73.43,109.65-73.43,99,178.09,184,178.09,56.9-204.84,157.45-204.84V451.1H0Z"/></g></g></svg>